<svg width="100" height="100" viewBox="0 0 100 100" fill="none" xmlns="http://www.w3.org/2000/svg">
<rect width="100" height="100" fill="#F5F5F5"/>
<rect width="100" height="100" rx="50" fill="white"/>
<g clip-path="url(#clip0_0_1)">
<path d="M100 0H0V100H100V0Z" fill="white"/>
<path d="M100.05 0H0.0500183V100H100.05V0Z" fill="url(#paint0_linear_0_1)"/>
<path d="M100.05 0H0.0500031V100H100.05V0Z" fill="url(#paint1_linear_0_1)"/>
<path d="M100.05 0H0.0500031V100H100.05V0Z" fill="url(#paint2_linear_0_1)"/>
<path d="M100.05 0H0.0500031V100H100.05V0Z" fill="url(#paint3_linear_0_1)"/>
</g>
<path d="M36.9693 67.3V30.2091H50.1902C53.0758 30.2091 55.4665 30.7343 57.3621 31.7847C59.2577 32.8352 60.6763 34.272 61.6181 36.0951C62.5599 37.9062 63.0308 39.9467 63.0308 42.2166C63.0308 44.4985 62.5538 46.5511 61.6 48.3742C60.6582 50.1853 59.2335 51.6221 57.3258 52.6846C55.4303 53.735 53.0457 54.2602 50.1721 54.2602H41.0805V49.5152H49.665C51.4881 49.5152 52.9672 49.2013 54.1021 48.5735C55.2371 47.9335 56.0702 47.0642 56.6014 45.9655C57.1327 44.8668 57.3983 43.6171 57.3983 42.2166C57.3983 40.816 57.1327 39.5724 56.6014 38.4857C56.0702 37.3991 55.231 36.5479 54.084 35.9321C52.9491 35.3163 51.4519 35.0085 49.5925 35.0085H42.5656V67.3H36.9693Z" fill="#1F2833"/>
<defs>
<linearGradient id="paint0_linear_0_1" x1="82.45" y1="6.95" x2="26.15" y2="100" gradientUnits="userSpaceOnUse">
<stop stop-color="#A8EFFF"/>
<stop offset="0.510417" stop-color="#4AF4FF"/>
<stop offset="1" stop-color="#B8FBFF"/>
</linearGradient>
<linearGradient id="paint1_linear_0_1" x1="3.35" y1="100" x2="47.9" y2="59.6" gradientUnits="userSpaceOnUse">
<stop stop-color="#8AD5FF"/>
<stop offset="0.963542" stop-color="#63C7FF" stop-opacity="0"/>
</linearGradient>
<linearGradient id="paint2_linear_0_1" x1="50.05" y1="36" x2="94.25" y2="50" gradientUnits="userSpaceOnUse">
<stop stop-color="#D0FFC9" stop-opacity="0"/>
<stop offset="0.0001" stop-color="#D0FFC9" stop-opacity="0"/>
<stop offset="1" stop-color="#E7F6FF"/>
</linearGradient>
<linearGradient id="paint3_linear_0_1" x1="54.45" y1="12.7" x2="53.3" y2="64" gradientUnits="userSpaceOnUse">
<stop stop-color="#95F2FF"/>
<stop offset="1" stop-color="#ADF494" stop-opacity="0.16"/>
</linearGradient>
<clipPath id="clip0_0_1">
<rect width="100" height="100" fill="white"/>
</clipPath>
</defs>
</svg>
